<?xml version="1.0" standalone="no"?>
<!DOCTYPE svg PUBLIC "-//W3C//DTD SVG 20010904//EN"
 "http://www.w3.org/TR/2001/REC-SVG-20010904/DTD/svg10.dtd">
<svg version="1.0" xmlns="http://www.w3.org/2000/svg"
 width="500.000000pt" height="500.000000pt" viewBox="0 0 500.000000 500.000000"
 preserveAspectRatio="xMidYMid meet">

<g transform="translate(0.000000,500.000000) scale(0.100000,-0.100000)"
fill="#000000" stroke="none">
<path d="M0 2500 l0 -2500 2500 0 2500 0 0 2500 0 2500 -2500 0 -2500 0 0
-2500z m3318 2230 c40 -38 37 -93 -7 -127 -12 -9 -187 -12 -743 -13 l-728 0 0
-1497 0 -1497 -22 -23 c-29 -31 -89 -32 -118 -1 -20 22 -20 26 -20 1575 l0
1554 25 24 24 25 784 0 c773 0 784 0 805 -20z m-1899 -386 l31 -26 0 -1169 0
-1170 -25 -24 c-32 -33 -78 -33 -110 0 l-25 24 0 1169 c0 1235 -2 1185 45
1210 31 17 51 14 84 -14z m2286 -10 c32 -35 32 -78 0 -109 l-24 -25 -806 0
-805 0 0 80 0 80 805 0 806 0 24 -26z m-2668 -376 l23 -21 0 -788 c0 -757 -1
-788 -19 -810 -27 -33 -95 -33 -122 0 -18 22 -19 53 -19 809 l0 786 22 23 c28
30 83 31 115 1z m3031 -8 c16 -15 22 -32 22 -62 0 -40 -2 -42 -697 -740 -384
-385 -700 -701 -702 -703 -2 -2 165 -176 370 -385 206 -209 378 -392 383 -405
22 -56 -33 -115 -92 -100 -18 4 -173 152 -444 423 -412 412 -418 418 -417 457
0 39 13 53 659 705 l658 665 -869 3 -869 2 0 80 0 80 988 0 c981 0 988 0 1010
-20z m-768 -306 c0 -16 -699 -718 -727 -730 -56 -24 -113 16 -113 80 0 26 42
73 313 343 l312 313 108 0 c59 0 107 -3 107 -6z m-641 -99 c-106 -105 -127
-113 -175 -71 -41 35 -39 85 6 131 l34 35 115 0 116 0 -96 -95z m1029 -988
c285 -286 322 -326 322 -354 0 -17 -3 -39 -6 -48 -9 -23 -60 -46 -87 -40 -13
4 -169 152 -347 330 l-325 325 55 55 c30 30 57 55 60 55 3 0 150 -145 328
-323z m308 -871 c30 -55 -9 -116 -73 -116 -37 -1 -52 13 -496 461 l-458 463
58 58 58 58 448 -447 c247 -247 455 -461 463 -477z m-986 -245 c0 -5 -16 -83
-36 -172 -34 -159 -40 -229 -18 -236 21 -7 67 41 90 94 21 46 44 70 44 45 0
-31 -38 -109 -67 -138 -37 -37 -67 -43 -95 -17 -17 15 -20 15 -41 -5 -27 -25
-69 -29 -87 -7 -11 13 -16 12 -42 -10 -18 -15 -42 -25 -62 -25 l-32 0 4 -62
c3 -46 -5 -97 -26 -188 -70 -288 -72 -324 -20 -332 28 -4 31 -31 4 -36 -31 -6
-65 19 -76 56 -10 39 1 118 50 331 46 203 42 225 -34 215 -84 -12 -112 -64
-154 -284 -36 -185 -46 -217 -66 -201 -8 7 -12 19 -10 29 28 121 64 333 64
376 0 53 -20 91 -35 66 -3 -5 -15 -10 -25 -10 -21 0 -85 -79 -117 -145 -11
-22 -30 -88 -42 -147 -29 -141 -42 -178 -75 -202 -37 -28 -60 -13 -64 45 -3
37 6 62 58 164 40 79 64 140 70 179 11 67 8 76 -17 54 -10 -9 -42 -28 -71 -43
-42 -22 -50 -30 -41 -41 6 -8 20 -14 30 -14 11 0 19 -7 19 -15 0 -29 -57 -18
-82 15 -12 17 -30 30 -39 30 -10 0 -31 12 -48 26 -24 19 -31 34 -31 60 0 43
20 44 40 1 9 -20 24 -33 38 -35 22 -3 23 -2 18 71 -6 109 -30 147 -92 147 -39
0 -27 26 19 40 116 34 164 138 99 211 -40 45 -103 51 -174 16 -75 -38 -102
-80 -106 -174 -3 -57 -7 -73 -19 -73 -25 0 -13 135 17 188 42 74 137 120 218
106 98 -17 147 -106 108 -197 -13 -31 -61 -80 -88 -90 -10 -3 -9 -9 4 -23 26
-30 40 -73 47 -152 l6 -72 35 19 c25 13 34 24 31 37 -2 11 -4 55 -4 99 -1 67
4 89 27 138 35 73 62 92 120 84 35 -5 45 -3 50 10 4 10 10 13 16 7 6 -6 2 -38
-10 -84 -21 -81 -37 -210 -26 -210 19 0 59 37 75 69 10 20 36 109 57 199 22
92 43 161 49 159 10 -4 10 -13 -1 -86 -6 -41 -6 -43 14 -32 30 16 63 14 84 -6
22 -20 23 -71 3 -163 -7 -35 -11 -68 -9 -72 3 -4 18 -8 34 -8 40 0 44 9 103
224 8 28 19 52 25 54 17 5 15 -17 -7 -101 -37 -140 -37 -179 -4 -191 21 -9 59
18 78 53 8 17 28 80 44 142 15 62 33 115 40 117 15 5 14 -14 -8 -110 -27 -118
-32 -161 -22 -177 15 -23 48 -3 70 42 18 38 81 280 81 312 0 24 19 65 30 65 5
0 10 -4 10 -9z m-1102 -130 c-17 -20 -31 -57 -42 -108 -9 -43 -24 -110 -32
-149 -19 -92 -51 -153 -93 -181 -46 -31 -92 -30 -130 3 -26 22 -31 33 -31 71
0 38 5 50 34 79 35 35 76 45 76 19 0 -8 -8 -15 -18 -15 -10 0 -29 -11 -42 -25
-46 -49 -19 -125 45 -125 73 0 111 68 150 264 24 126 44 181 74 203 29 21 35
-4 9 -36z m1557 -320 c-4 -25 -17 -93 -30 -151 -36 -163 -39 -199 -20 -206 23
-9 59 29 84 87 26 58 58 70 47 17 -12 -62 -51 -122 -91 -142 -35 -18 -41 -18
-65 -4 -24 14 -28 13 -49 -3 -28 -23 -74 -25 -91 -4 -10 13 -16 11 -44 -10
-40 -31 -69 -32 -97 -4 l-21 21 -26 -25 c-37 -35 -76 -43 -106 -23 -21 13 -26
13 -36 1 -7 -8 -28 -19 -48 -25 -29 -7 -41 -6 -60 6 -22 15 -25 14 -46 -5 -27
-25 -63 -27 -88 -4 -25 23 -23 95 6 216 25 105 38 129 58 109 12 -12 9 -35
-26 -195 -14 -63 -13 -97 3 -97 25 1 49 45 80 144 27 86 27 112 1 119 -30 8
-24 37 10 48 24 9 32 20 45 65 21 72 45 74 45 4 l0 -50 34 0 c39 0 44 6 67 70
22 64 45 60 41 -7 -3 -47 -1 -52 20 -55 36 -5 31 -41 -7 -48 -27 -5 -31 -11
-47 -70 -23 -88 -33 -176 -20 -184 31 -19 66 32 108 162 29 87 54 126 96 148
22 11 37 13 58 6 21 -8 31 -7 43 6 29 28 32 -14 9 -127 -26 -125 -28 -161 -8
-161 33 0 71 98 117 305 12 55 27 106 32 112 18 24 29 1 22 -46z m-687 -87 c4
-27 -26 -40 -46 -20 -21 20 -8 48 20 44 14 -2 24 -11 26 -24z"/>
<path d="M2460 1228 c-28 -29 -53 -87 -69 -159 l-12 -56 35 -35 35 -35 24 26
c25 28 50 136 51 226 1 44 -2 50 -21 53 -12 2 -30 -6 -43 -20z"/>
<path d="M2184 1205 c-31 -21 -66 -111 -71 -180 -5 -77 5 -95 42 -71 34 22 61
68 81 136 8 30 17 63 20 72 5 16 -27 58 -44 58 -4 0 -17 -7 -28 -15z"/>
<path d="M2097 535 c-19 -39 -22 -69 -7 -60 10 6 34 84 27 91 -2 2 -11 -12
-20 -31z"/>
<path d="M3199 850 c-37 -22 -79 -168 -65 -224 16 -63 65 -10 103 112 19 62
23 89 16 101 -12 20 -33 24 -54 11z"/>
<path d="M2915 823 c-31 -8 -42 -20 -49 -56 -3 -17 -12 -63 -20 -102 -9 -46
-11 -76 -5 -88 25 -46 87 51 113 175 17 81 15 84 -39 71z"/>
</g>
</svg>
